PathFileType	4	(X/Y/Z)	C:/Users/beibeiliu/ov580/test_trc/User1\sequence.4_training_dense_right.trc
DataRate	CameraRate	NumFrames	NumMarkers	Units	OrigDataRate	OrigDataStartFrame	OrigNumFrames
120	120	8	19	mm	120	220	251
Frame#	Time	ThumbCMC			ThumbMCP			ThumbIP			ThumbTip			IndexMCP			IndexPIP			IndexTip			MiddleMCP			MiddlePIP			MiddleTip			RingMCP			RingPIP			RingTip			PinkyMCP			PinkyPIP			PinkyTip			BackHand1			BackHand2			BackHand3	
		X0	Y0	Z0	X1	Y1	Z1	X2	Y2	Z2	X3	Y3	Z3	X4	Y4	Z4	X5	Y5	Z5	X6	Y6	Z6	X7	Y7	Z7	X8	Y8	Z8	X9	Y9	Z9	X10	Y10	Z10	X11	Y11	Z11	X12	Y12	Z12	X13	Y13	Z13	X14	Y14	Z14	X15	Y15	Z15	X16	Y16	Z16	X17	Y17	Z17	X18	Y18	Z18	
219	1.825	119.732	117.451	13.0299	79.5278	117.975	-3.07097	58.9621	102.288	-22.5779	46.058	76.767	-27.9116	89.4067	96.3614	-57.1406	62.7057	95.4561	-37.29	85.1889	101.512	-12.5609	83.6794	72.7765	-57.7184	59.9914	75.6868	-34.0383	87.7757	84.1594	-6.90091	80.5304	50.6736	-41.8726	62.7086	62.2913	-18.1587	89.01	71.9159	2.46812	85.5681	39.4764	-25.7423	71.0617	52.0997	-6.89905	95.9145	64.9275	11.1558	140.901	54.7083	-14.2564	157.197	61.3863	15.8927	149.648	92.7816	-3.09149	
220	1.83333	122.924	121.837	10.647	84.495	119.985	-7.82926	61.3147	109.745	-24.4426	48.5956	81.6387	-32.7846	90.0694	104.175	-60.9173	64.7637	104.835	-40.2192	89.1346	109.402	-15.1007	84.534	75.1416	-60.3361	60.8661	85.3637	-35.5123	88.462	85.0323	-9.58172	84.3063	56.2914	-46.0989	60.9918	66.4934	-21.6355	86.4171	75.2175	-0.803351	84.2313	43.3359	-27.9023	67.7792	56.9353	-5.66474	92.9884	69.6849	7.98209	138.234	52.2045	-14.9386	154.159	59.5552	18.644	148.774	89.6719	-8.84846	
221	1.84167	125.319	120.46	8.73065	87.9964	126.209	-7.56573	68.052	115.045	-25.464	51.4011	88.5659	-36.1977	94.6004	103.244	-63.0574	68.9982	105.133	-46.2197	90.9853	111.75	-17.7577	89.7736	77.4846	-61.3424	63.7638	91.6009	-39.5242	89.3906	90.1195	-11.7188	84.771	57.8342	-47.6304	61.5408	71.6275	-24.5604	84.7457	79.4334	-3.87609	82.4893	40.386	-29.8491	67.3581	60.4062	-14.4042	89.2472	68.2899	8.44318	139.684	52.3376	-14.0089	152.753	57.892	18.6467	152.96	86.9187	-5.55724	
222	1.85	129.256	119.224	6.32077	96.683	127.396	-9.72579	72.6238	120.372	-33.6234	53.8775	99.2763	-40.0032	100.763	105.561	-65.0825	74.6778	109.048	-47.6919	94.5819	112.388	-21.5483	94.7797	81.3232	-63.9886	67.0505	95.4044	-43.6907	89.3182	94.7816	-13.9396	82.9255	63.3962	-52.348	63.0224	76.3395	-31.0775	87.1629	79.8133	-5.16183	78.3579	46.3554	-33.5937	67.6086	66.2979	-15.2774	89.9567	74.1428	2.57377	137.099	48.3087	-14.7894	149.093	53.3224	15.7181	152.933	86.0216	-7.98819	
223	1.85833	133.573	114.948	6.64637	101.645	128.045	-16.677	82.4606	122.216	-32.4804	58.9616	99.924	-47.0662	110.17	106.179	-66.7449	82.0358	116.421	-54.6372	103.115	112.624	-23.2881	96.903	84.4652	-67.003	71.9684	96.6385	-45.5807	92.3899	94.8582	-16.5414	83.659	64.6186	-55.2671	66.955	82.9891	-34.0261	88.9246	81.5662	-6.89606	85.1122	47.8909	-35.8194	69.7093	70.9058	-18.959	92.8069	71.1308	3.89904	138.291	49.1871	-15.4165	149.614	49.9527	16.3252	157.373	81.1097	-4.14493	
224	1.86667	139.239	115.565	6.40309	108.626	125.451	-18.7238	89.0178	121.827	-37.9385	66.0319	105.546	-50.2785	117.18	103.967	-69.0627	90.7708	115.023	-57.557	109.397	114.136	-25.5861	105.401	83.9465	-70.0201	77.3818	96.9864	-50.026	97.8112	95.844	-18.6051	92.4495	62.7121	-56.6021	70.1791	84.1983	-37.65	92.8775	83.9483	-11.645	84.001	51.3455	-39.8751	72.7946	73.8671	-24.0732	92.5203	75.1384	-0.418807	135.7	44.9558	-17.3717	144.395	46.9457	17.9361	158.333	75.0874	-2.97376	
225	1.875	142.682	112.456	4.75412	114.044	126.517	-18.5863	95.7425	121.235	-43.0453	73.595	105.081	-55.0034	125.554	98.4108	-70.8687	99.3046	116.633	-60.5089	113.089	109.504	-28.3064	110.942	80.6935	-71.2599	87.1732	100.216	-56.2989	101.664	95.4949	-22.3	93.7491	63.9377	-60.6787	78.3443	85.9561	-44.7219	92.0876	80.8264	-13.6737	87.8087	53.7057	-43.7499	72.348	71.7934	-26.3905	97.8626	73.6612	-0.944151	137.443	45.584	-17.0348	142.526	41.9943	19.6642	161.39	72.2586	-0.127119	
226	1.88333	145.512	106.788	8.90353	119.348	123.656	-23.8358	102.719	120.637	-44.3441	79.935	102.794	-60.7576	136.97	95.9467	-69.3109	105.988	108.674	-62.9211	117.346	106.45	-30.35	115.611	74.8508	-72.6782	94.261	97.6203	-58.8605	108.114	91.0386	-23.7021	100.716	62.6368	-62.3713	82.685	81.8428	-48.1076	97.0719	82.0469	-17.9752	93.8252	47.1048	-43.521	80.4391	71.3262	-31.9373	98.2689	75.0673	-4.96253	140.11	37.0373	-15.6951	145.294	42.2166	22.983	162.481	69.3371	0.466314	
